<svg width="40" height="35" viewBox="0 0 40 35" fill="none" xmlns="http://www.w3.org/2000/svg">
<path d="M38.478 12.3493H27.4626L23.4762 16.0639C22.9872 16.5216 21.7652 17.1315 21.7652 17.1315C21.7652 17.1315 20.4381 17.5048 19.745 17.503C18.3326 17.503 17.0082 16.9905 16.0094 16.0619C15.5184 15.6064 15.1289 15.0649 14.8635 14.4685C14.598 13.8721 14.4618 13.2327 14.4628 12.5871C14.4628 12.5072 14.4848 12.4293 14.487 12.3493H1.5202C1.17011 12.3493 0.834363 12.4789 0.586814 12.7096C0.339266 12.9402 0.200195 13.2531 0.200195 13.5793V18.4993H39.8002V13.5793C39.8002 13.4176 39.766 13.2575 39.6995 13.1081C39.633 12.9588 39.5356 12.8231 39.4128 12.7088C39.29 12.5946 39.1442 12.504 38.9838 12.4423C38.8234 12.3807 38.6515 12.349 38.478 12.3493ZM21.6898 14.3973L32.8108 4.03451C32.9338 3.92054 33.0315 3.7851 33.0983 3.63593C33.1651 3.48675 33.1997 3.32677 33.2001 3.16513C33.2005 3.00349 33.1668 2.84336 33.1007 2.69389C33.0347 2.54443 32.9376 2.40856 32.8152 2.29406L30.7912 0.408057C30.5427 0.177966 30.2065 0.0488281 29.8562 0.0488281C29.5059 0.0488281 29.1697 0.177966 28.9212 0.408057L17.8002 10.7729C17.2844 11.2535 16.9946 11.9053 16.9946 12.5851C16.9946 13.2648 17.2844 13.9166 17.8002 14.3973C18.316 14.8779 19.0156 15.1479 19.745 15.1479C20.4744 15.1479 21.174 14.8779 21.6898 14.3973ZM6.4108 33.4049C6.6242 34.2269 7.5438 34.8993 8.4502 34.8993H31.5502C32.4566 34.8993 33.3762 34.2269 33.5896 33.4049L36.9402 20.5493H3.0602L6.4108 33.4049Z" fill="#30404F"/>
<path d="M23.3122 26.5193V27.7513H16.9282V26.5193H23.3122Z" fill="white"/>
</svg>
