<svg width="41" height="41" viewBox="0 0 41 41" fill="none" xmlns="http://www.w3.org/2000/svg">
<g clip-path="url(#clip0_505_468)">
<path d="M23.2273 18.3476C23.6971 19.0488 23.8994 19.8955 23.7972 20.7333C23.695 21.5711 23.2952 22.3443 22.6705 22.9119C22.0459 23.4796 21.2381 23.8039 20.3944 23.8258C19.5507 23.8477 18.7271 23.5657 18.0739 23.0311C17.4208 22.4966 16.9814 21.7452 16.8359 20.9138C16.6904 20.0824 16.8485 19.2264 17.2814 18.5018C17.7142 17.7772 18.3931 17.2323 19.1941 16.9664C19.9951 16.7005 20.8651 16.7312 21.6453 17.053C22.2888 17.3191 22.8392 17.7695 23.2273 18.3476Z" fill="#FAFAFA"/>
<path d="M28.8878 16.042C28.8795 15.373 28.7565 14.7103 28.5239 14.083C28.3489 13.628 28.0803 13.2148 27.7356 12.8701C27.3909 12.5254 26.9777 12.2568 26.5227 12.0817C25.8953 11.8492 25.2327 11.7261 24.5637 11.7179C23.4536 11.6678 23.1188 11.6572 20.3028 11.6572C17.4869 11.6572 17.1388 11.6572 16.042 11.7179C15.373 11.7261 14.7103 11.8492 14.083 12.0817C13.628 12.2568 13.2148 12.5254 12.8701 12.8701C12.5254 13.2148 12.2568 13.628 12.0817 14.083C11.8492 14.7103 11.7261 15.373 11.7179 16.042C11.6678 17.152 11.6572 17.4869 11.6572 20.3028C11.6572 23.1188 11.6572 23.4668 11.7179 24.5637C11.7261 25.2327 11.8492 25.8953 12.0817 26.5227C12.2568 26.9777 12.5254 27.3909 12.8701 27.7356C13.2148 28.0803 13.628 28.3489 14.083 28.5239C14.7103 28.7565 15.373 28.8795 16.042 28.8878C17.152 28.9379 17.4869 28.9484 20.3028 28.9484C23.1188 28.9484 23.4668 28.9484 24.5637 28.8878C25.2327 28.8795 25.8953 28.7565 26.5227 28.5239C26.9777 28.3489 27.3909 28.0803 27.7356 27.7356C28.0803 27.3909 28.3489 26.9777 28.5239 26.5227C28.7565 25.8953 28.8795 25.2327 28.8878 24.5637C28.9379 23.4536 28.9484 23.1214 28.9484 20.3028C28.9484 17.4842 28.9379 17.152 28.8878 16.042ZM24.8063 23.3113C24.0851 24.3905 23.0002 25.1746 21.7493 25.5209C20.4984 25.8671 19.1647 25.7523 17.9913 25.1974C16.8179 24.6425 15.883 23.6844 15.357 22.4978C14.8309 21.3113 14.7487 19.9752 15.1253 18.7331C15.502 17.491 16.3124 16.4255 17.4089 15.731C18.5054 15.0365 19.815 14.759 21.099 14.9493C22.3829 15.1396 23.5557 15.7848 24.4037 16.7675C25.2516 17.7502 25.7183 19.0049 25.7185 20.3028C25.7175 21.3736 25.4001 22.4202 24.8063 23.3113ZM25.9321 15.9286C25.6818 15.9286 25.4371 15.8544 25.229 15.7153C25.0209 15.5763 24.8586 15.3786 24.7628 15.1473C24.6671 14.9161 24.642 14.6616 24.6908 14.4161C24.7397 14.1706 24.8602 13.9451 25.0372 13.7681C25.2142 13.5911 25.4397 13.4706 25.6852 13.4217C25.9307 13.3729 26.1852 13.398 26.4164 13.4938C26.6477 13.5896 26.8453 13.7518 26.9844 13.9599C27.1235 14.168 27.1977 14.4127 27.1977 14.663C27.1991 14.8301 27.1674 14.9958 27.1044 15.1506C27.0414 15.3054 26.9484 15.4461 26.8308 15.5648C26.7131 15.6834 26.5731 15.7776 26.4189 15.8418C26.2646 15.9061 26.0992 15.9392 25.9321 15.9392V15.9286Z" fill="#FAFAFA"/>
<g filter="url(#filter0_d_505_468)">
<path d="M20.3023 0C16.2869 0 12.3616 1.19071 9.02295 3.42155C5.68426 5.6524 3.08206 8.82318 1.54543 12.5329C0.00879666 16.2427 -0.393256 20.3248 0.390112 24.2631C1.17348 28.2013 3.10709 31.8188 5.94641 34.6582C8.78574 37.4975 12.4033 39.4311 16.3415 40.2145C20.2798 40.9978 24.3619 40.5958 28.0716 39.0592C31.7814 37.5225 34.9522 34.9203 37.183 31.5816C39.4139 28.2429 40.6046 24.3177 40.6046 20.3023C40.6046 14.9178 38.4656 9.75382 34.6582 5.9464C30.8508 2.13898 25.6868 0 20.3023 0V0ZM30.7857 24.6501C30.7684 25.5252 30.6026 26.3909 30.2952 27.2103C30.0252 27.9116 29.6111 28.5484 29.0798 29.0798C28.5484 29.6111 27.9116 30.0252 27.2103 30.2952C26.3906 30.6015 25.5251 30.7673 24.6502 30.7857C23.5269 30.8357 23.1657 30.8489 20.3023 30.8489C17.4389 30.8489 17.0803 30.8489 15.9544 30.7857C15.0796 30.7671 14.2141 30.6013 13.3942 30.2952C12.693 30.0252 12.0562 29.6111 11.5248 29.0798C10.9935 28.5484 10.5794 27.9116 10.3094 27.2103C10.0033 26.3905 9.83752 25.525 9.81893 24.6501C9.76884 23.5269 9.75565 23.1683 9.75565 20.3023C9.75565 17.4362 9.75565 17.0803 9.81893 15.9544C9.83752 15.0796 10.0033 14.2141 10.3094 13.3942C10.5794 12.693 10.9935 12.0562 11.5248 11.5248C12.0562 10.9935 12.693 10.5794 13.3942 10.3093C14.2141 10.0033 15.0796 9.83751 15.9544 9.81892C17.0777 9.76883 17.4389 9.75564 20.3023 9.75564C23.1657 9.75564 23.5243 9.75564 24.6502 9.81892C25.525 9.83751 26.3905 10.0033 27.2103 10.3093C27.9116 10.5794 28.5484 10.9935 29.0798 11.5248C29.6111 12.0562 30.0252 12.693 30.2952 13.3942C30.6013 14.2141 30.7671 15.0796 30.7857 15.9544C30.8358 17.0777 30.8489 17.4362 30.8489 20.3023C30.8489 23.1683 30.8489 23.5243 30.7857 24.6501Z" fill="#FAFAFA"/>
</g>
</g>
<defs>
<filter id="filter0_d_505_468" x="-1.20548" y="0" width="43.0155" height="43.0155" filterUnits="userSpaceOnUse" color-interpolation-filters="sRGB">
<feFlood flood-opacity="0" result="BackgroundImageFix"/>
<feColorMatrix in="SourceAlpha" type="matrix" values="0 0 0 0 0 0 0 0 0 0 0 0 0 0 0 0 0 0 127 0" result="hardAlpha"/>
<feOffset dy="1.20548"/>
<feGaussianBlur stdDeviation="0.60274"/>
<feComposite in2="hardAlpha" operator="out"/>
<feColorMatrix type="matrix" values="0 0 0 0 0 0 0 0 0 0 0 0 0 0 0 0 0 0 0.05 0"/>
<feBlend mode="normal" in2="BackgroundImageFix" result="effect1_dropShadow_505_468"/>
<feBlend mode="normal" in="SourceGraphic" in2="effect1_dropShadow_505_468" result="shape"/>
</filter>
<clipPath id="clip0_505_468">
<rect width="40.6046" height="40.6046" fill="white"/>
</clipPath>
</defs>
</svg>
